<svg xmlns="http://www.w3.org/2000/svg" xmlns:xlink="http://www.w3.org/1999/xlink" xmlns:inkscape="http://www.inkscape.org/namespaces/inkscape" version="1.1" width="595.32" height="841.92007" viewBox="0 0 595.32 841.92007">
<defs>
<clipPath id="clip_1">
<path transform="matrix(.75,0,0,.75,0,0)" d="M0 164.32V958.4H793.76V164.32Z" clip-rule="evenodd"/>
</clipPath>
</defs>
<path transform="matrix(.75,0,0,.75,0,0)" d="M0 164.32H793.76V958.24H0Z" fill="#ffffff"/>
<g clip-path="url(#clip_1)">
<path transform="matrix(.75,0,0,.75,144.36,410.76)" d="M0 0C-.16-4.64-1.76-8.48-4.8-11.2-7.84-13.92-11.68-15.2-16.16-15.2-20.48-15.2-24.16-13.92-27.2-11.2-30.08-8.48-31.84-4.64-32.32 0ZM17.28 10.4H-32.32C-32 15.52-30.4 19.36-27.36 22.24-24.32 25.12-20.64 26.56-16.16 26.56-9.76 26.56-5.28 23.84-2.56 18.24H16C14.08 24.8 10.24 30.24 4.64 34.4-.8 38.56-7.68 40.64-15.68 40.64-22.24 40.64-28.16 39.2-33.28 36.32-38.56 33.44-42.56 29.44-45.44 24-48.32 18.72-49.76 12.64-49.76 5.76-49.76-1.28-48.32-7.52-45.44-12.8-42.56-18.08-38.56-22.24-33.44-25.12-28.32-27.84-22.4-29.28-15.68-29.28-9.28-29.28-3.52-28 1.6-25.12 6.72-22.4 10.72-18.4 13.44-13.44 16.32-8.32 17.76-2.56 17.76 4.16 17.76 6.4 17.6 8.48 17.28 10.4Z" fill="#f3822b"/>
<path transform="matrix(.75,0,0,.75,252.84,410.76)" d="M0 0C-.16-4.64-1.76-8.48-4.8-11.2-7.84-13.92-11.68-15.2-16.16-15.2-20.48-15.2-24.16-13.92-27.04-11.2-30.08-8.48-31.84-4.64-32.32 0ZM17.28 10.4H-32.32C-32 15.52-30.4 19.36-27.36 22.24-24.32 25.12-20.64 26.56-16.16 26.56-9.76 26.56-5.12 23.84-2.56 18.24H16C14.08 24.8 10.24 30.24 4.8 34.4-.8 38.56-7.68 40.64-15.68 40.64-22.24 40.64-28.16 39.2-33.28 36.32-38.4 33.44-42.56 29.44-45.44 24-48.32 18.72-49.76 12.64-49.76 5.76-49.76-1.28-48.32-7.52-45.44-12.8-42.56-18.08-38.56-22.24-33.44-25.12-28.32-27.84-22.4-29.28-15.68-29.28-9.28-29.28-3.52-28 1.6-25.12 6.72-22.4 10.72-18.4 13.44-13.44 16.32-8.32 17.76-2.56 17.76 4.16 17.76 6.4 17.6 8.48 17.28 10.4Z" fill="#0045c3"/>
<path transform="matrix(.75,0,0,.75,289.68,391.44)" d="M0 0C3.52-2.24 7.52-3.52 12.16-3.52V14.56H7.68C2.24 14.56-1.92 15.84-4.64 18.4-7.36 20.96-8.64 25.28-8.64 31.52V65.44H-25.76V-2.4H-8.64V9.6C-6.4 5.44-3.52 2.24 0 0Z" fill="#0045c3"/>
<path transform="matrix(.75,0,0,.75,170.76,419.76)" d="M0 0 32.8-40.64C31.04-40.96 29.12-41.28 27.04-41.28 22.72-41.28 18.88-40.32 15.36-38.72 11.68-36.96 8.8-34.72 6.56-31.84V-40.16H-10.56V27.68H6.56 9.76L19.2 0Z" fill="#f3822b"/>
<path transform="matrix(.75,0,0,.75,205.68,394.56)" d="M0 0C-3.68-3.68-8.32-6.08-13.76-7.04L-23.2 22.4H-3.04L-36.8 61.28H-9.6 7.52V21.44C7.52 12.32 4.96 5.12 0 0Z" fill="#0045c3"/>
<path transform="matrix(.75,0,0,.75,0,0)" d="M260.48 519.04V519.04Z" fill="#ffffff"/>
<path transform="matrix(.75,0,0,.75,0,0)" d="M237.44 587.36V587.36Z" fill="#ffffff"/>
<path transform="matrix(.75,0,0,.75,311.63999,426.59999)" d="M0 0C-.16 1.44-.32 2.88-.32 3.84-.32 6.56 .32 8.48 1.92 9.44 3.36 10.56 5.76 11.04 9.12 11.04H17.12L15.68 18.56H6.24C1.12 18.56-2.72 17.6-5.44 15.52-8 13.6-9.28 10.24-9.28 5.6-9.28 3.84-9.12 1.92-8.8 0L-1.28-42.56H-10.72L-9.44-49.92H.16L3.2-67.2H12L8.96-49.92H28L26.56-42.56H7.52Z" fill="#0045c3"/>
<path transform="matrix(.75,0,0,.75,373.91999,407.88)" d="M0 0C0-5.92-1.92-10.56-5.6-13.76-9.44-16.96-14.24-18.56-20-18.56-24.32-18.56-28.48-17.6-32.32-15.68-36.32-13.92-39.68-11.2-42.72-7.52-45.6-3.84-47.68 .64-48.64 5.92H-.64C-.16 3.52 0 1.6 0 0ZM-3.68-22.72C.48-20.48 3.52-17.44 5.76-13.6 7.84-9.76 8.96-5.28 8.96-.48 8.96 1.92 8.8 3.84 8.48 5.6 8 8.16 7.36 10.4 6.88 12.32H-49.92C-50.24 13.92-50.4 15.52-50.4 16.96-50.4 23.36-48.48 28.32-44.48 31.84-40.64 35.36-35.68 37.12-29.6 37.12-23.84 37.12-18.72 35.68-14.4 32.96-10.08 30.24-6.88 26.56-4.96 21.76H4.48C1.76 28.48-2.88 33.92-9.12 38.24-15.36 42.4-22.56 44.48-30.88 44.48-39.36 44.48-46.24 42.08-51.36 37.28-56.64 32.32-59.2 25.6-59.2 17.12-59.2 14.72-58.88 12-58.4 9.28-57.12 2.08-54.56-4.16-50.72-9.44-47.04-14.88-42.24-18.88-36.64-21.76-31.04-24.64-24.96-26.08-18.4-26.08-12.64-26.08-7.68-24.96-3.68-22.72Z" fill="#0045c3"/>
<path transform="matrix(.75,0,0,.75,390.59999,400.80003)" d="M0 0C3.84-5.28 8.48-9.44 14.08-12.32 19.68-15.2 25.6-16.64 32-16.64 40.48-16.64 47.04-14.56 51.84-10.24 56.48-6.08 59.04-.48 59.36 6.72H49.92C49.76 1.76 48-2.08 44.48-4.8 41.12-7.68 36.48-9.12 30.72-9.12 23.68-9.12 17.44-6.72 12-1.76 6.56 3.04 3.04 9.76 1.44 18.72 1.12 20.8 .96 23.2 .96 25.92 .96 32.48 2.72 37.76 6.4 41.28 9.92 44.8 14.88 46.56 20.8 46.56 26.72 46.56 31.84 45.12 36.16 42.4 40.48 39.52 43.68 35.68 45.92 30.56H55.2C52.48 37.6 47.84 43.36 41.6 47.52 35.36 51.84 28 53.92 19.68 53.92 11.2 53.92 4.32 51.52-.64 46.72-5.76 41.92-8.32 35.2-8.32 26.72-8.32 24.16-8 21.44-7.52 18.72-6.24 11.52-3.68 5.44 0 0Z" fill="#0045c3"/>
<path transform="matrix(.75,0,0,.75,483.59999,392.40003)" d="M0 0C4.16 3.84 6.24 9.28 6.24 16.64 6.24 19.36 6.08 21.76 5.6 24L-1.6 64.16H-10.24L-3.36 24.96C-2.88 23.04-2.72 20.96-2.72 18.88-2.72 13.28-4.32 9.12-7.36 6.24-10.4 3.36-14.56 2.08-20 2.08-26.56 2.08-32.32 4.16-36.96 8.32-41.6 12.48-44.64 18.56-46.08 26.72V26.56L-52.8 64.16H-61.6L-45.12-28.8H-36.32L-42.72 7.36C-39.84 3.04-36-.16-31.36-2.24-26.88-4.48-21.92-5.6-16.64-5.6-9.76-5.6-4.16-3.84 0 0Z" fill="#0045c3"/>
<path transform="matrix(.75,0,0,.75,151.68001,465.96003)" d="M0 0C-.8-.32-1.44-.8-1.92-1.44-2.56-2.08-2.72-2.88-2.72-3.84-2.72-4-2.72-4.16-2.72-4.48H.16C.16-3.68 .32-3.04 .8-2.56 1.44-2.08 2.08-1.76 3.04-1.76 4.16-1.76 4.96-1.92 5.6-2.4 6.24-2.88 6.4-3.52 6.4-4.32 6.4-4.8 6.4-5.12 6.08-5.44 5.76-5.92 5.28-6.08 4.96-6.4 4.48-6.56 3.84-6.88 3.04-7.2 1.92-7.68 1.12-8 .48-8.48-.16-8.8-.64-9.28-1.12-9.92-1.6-10.56-1.76-11.36-1.76-12.32-1.76-13.28-1.44-14.24-.96-15.04-.32-15.84 .32-16.32 1.28-16.8 2.24-17.28 3.36-17.44 4.48-17.44 5.76-17.44 6.72-17.28 7.68-16.8 8.48-16.48 9.12-15.84 9.6-15.2 10.08-14.4 10.24-13.6 10.24-12.64H7.2C7.2-13.28 7.04-13.92 6.56-14.4 6.08-14.88 5.28-15.04 4.48-15.04 3.36-15.04 2.72-14.88 2.08-14.4 1.44-13.92 1.12-13.44 1.12-12.64 1.12-12.16 1.28-11.68 1.6-11.36 1.92-11.04 2.24-10.72 2.72-10.56 3.2-10.24 3.84-9.92 4.64-9.6 5.6-9.12 6.56-8.64 7.2-8.32 7.84-8 8.32-7.52 8.8-6.88 9.28-6.24 9.44-5.44 9.44-4.48 9.44-3.52 9.12-2.56 8.64-1.92 8.16-1.12 7.36-.48 6.4 0 5.44 .32 4.32 .64 3.04 .64 1.92 .64 .96 .48 0 0Z" fill="#0045c3"/>
<path transform="matrix(.75,0,0,.75,167.4,464.03999)" d="M0 0C.8-.64 1.44-1.28 1.92-2.24 2.24-3.2 2.56-4.16 2.56-5.12 2.56-6.24 2.24-7.2 1.6-7.84 .96-8.48 0-8.8-.96-8.8-1.92-8.8-2.72-8.48-3.52-8-4.32-7.36-4.96-6.72-5.44-5.76-5.76-4.8-6.08-3.84-6.08-2.88-6.08-1.76-5.76-.8-5.12-.16-4.48 .48-3.68 .8-2.72 .8-1.76 .8-.8 .48 0 0ZM-6.24 2.4C-7.04 1.92-7.84 1.28-8.32 .32-8.8-.48-8.96-1.6-8.96-2.72-8.96-4.32-8.64-5.76-7.84-7.04-7.2-8.32-6.08-9.28-4.8-10.08-3.52-10.88-2.08-11.2-.48-11.2 .64-11.2 1.76-11.04 2.56-10.56 3.52-9.92 4.16-9.28 4.8-8.48 5.28-7.52 5.6-6.56 5.6-5.28 5.6-3.68 5.12-2.24 4.32-.96 3.68 .32 2.56 1.28 1.28 2.08 0 2.88-1.44 3.2-3.04 3.2-4.16 3.2-5.28 2.88-6.24 2.4Z" fill="#0045c3"/>
<path transform="matrix(.75,0,0,.75,0,0)" d="M236.48 602.88 233.12 621.76H230.24L233.6 602.88Z" fill="#0045c3"/>
<path transform="matrix(.75,0,0,.75,189,455.76)" d="M0 0-2.4 14.08H-5.28L-4.96 12.32C-5.6 12.96-6.24 13.44-7.04 13.76-7.84 14.08-8.64 14.24-9.44 14.24-10.88 14.24-12.16 13.76-12.96 12.96-13.92 12.16-14.24 11.04-14.24 9.6-14.24 9.28-14.24 8.8-14.24 8.32L-12.8 0H-9.92L-11.2 7.84C-11.36 8.32-11.36 8.64-11.36 8.8-11.36 9.76-11.04 10.4-10.56 11.04-10.08 11.52-9.28 11.68-8.48 11.68-7.36 11.68-6.4 11.36-5.76 10.72-4.96 10.08-4.48 9.12-4.32 8L-2.88 0Z" fill="#0045c3"/>
<path transform="matrix(.75,0,0,.75,196.56,467.64)" d="M0 0C.48 .32 .8 .8 .8 1.44 .8 2.56 .32 3.36-.32 3.84-1.12 4.48-2.08 4.8-3.04 4.8H-6.4L-6.08 3.04H-3.36C-2.72 3.04-2.4 2.88-2.08 2.72-1.76 2.56-1.76 2.24-1.76 1.76-1.76 1.6-1.76 1.28-2.08 1.28-2.24 1.12-2.56 1.12-2.88 1.12H-4.32L-3.84-2.08H-1.92L-2.08-.64C-1.28-.64-.64-.48 0 0ZM-6.88-12.64C-6.08-13.76-5.12-14.56-4-15.2-2.88-15.68-1.6-16-.32-16 1.44-16 2.72-15.68 3.68-14.88 4.64-14.08 5.28-12.96 5.28-11.36H2.24C2.08-12.16 1.76-12.64 1.28-12.96 .8-13.44 .16-13.6-.8-13.6-1.92-13.6-2.88-13.12-3.84-12.32-4.64-11.52-5.12-10.4-5.44-8.8-5.6-8.32-5.6-7.84-5.6-7.52-5.6-6.4-5.28-5.6-4.8-4.96-4.16-4.32-3.36-4-2.4-4-.8-4 .48-4.8 1.28-6.24H4.48C3.84-4.8 2.88-3.68 1.6-2.88 .32-2.08-1.12-1.6-2.88-1.6-4.64-1.6-5.92-2.08-7.04-3.04-8-4.16-8.64-5.44-8.64-7.2-8.64-7.68-8.48-8.32-8.48-8.8-8.16-10.24-7.68-11.52-6.88-12.64Z" fill="#0045c3"/>
<path transform="matrix(.75,0,0,.75,206.40001,453)" d="M0 0C.64-.48 1.28-.64 2.08-.64 2.4-.64 2.72-.64 2.88-.64 3.04-.48 3.36-.32 3.68-.16 3.84 0 4.16 .16 4.32 .32 4.48 .32 4.64 .48 4.8 .48 5.12 .48 5.44 .32 5.6 .16 5.92 0 6.08-.32 6.08-.64H7.68C7.52 .32 7.04 1.12 6.4 1.6 5.76 2.08 5.12 2.24 4.32 2.24 4 2.24 3.68 2.24 3.52 2.24 3.36 2.08 3.04 1.92 2.72 1.6 2.56 1.44 2.24 1.44 2.08 1.28 1.92 1.28 1.76 1.12 1.6 1.12 1.28 1.12 1.12 1.28 .8 1.44 .64 1.6 .48 1.92 .32 2.24H-1.28C-.96 1.28-.48 .48 0 0ZM5.28 9.6C5.28 8.48 4.96 7.68 4.16 7.04 3.52 6.24 2.72 5.92 1.76 5.92 .96 5.92 .32 6.24-.48 6.56-1.12 6.88-1.76 7.36-2.24 8.16-2.88 8.8-3.2 9.6-3.36 10.56-3.36 10.88-3.52 11.36-3.52 11.68-3.52 12.8-3.04 13.76-2.4 14.4-1.76 15.04-.96 15.36 0 15.36 .8 15.36 1.6 15.2 2.24 14.88 2.88 14.4 3.52 13.92 4.16 13.28 4.64 12.48 4.96 11.68 5.12 10.72 5.28 10.4 5.28 10.08 5.28 9.6ZM-4.8 6.88C-4 5.76-3.04 4.96-1.92 4.32-.8 3.84 .32 3.52 1.6 3.52 2.72 3.52 3.52 3.68 4.32 4.16 5.12 4.48 5.6 5.12 5.92 5.76L6.4 3.68H9.28L6.88 17.76H3.84L4.32 15.68C3.68 16.32 2.88 16.8 1.92 17.28 1.12 17.76 0 17.92-.96 17.92-2.08 17.92-3.04 17.6-3.84 17.28-4.64 16.8-5.28 16-5.76 15.2-6.24 14.24-6.4 13.28-6.4 12.16-6.4 11.68-6.4 11.2-6.24 10.56-6.08 9.28-5.6 8-4.8 6.88Z" fill="#0045c3"/>
<path transform="matrix(.75,0,0,.75,221.16,464.03999)" d="M0 0C.8-.64 1.44-1.28 1.92-2.24 2.4-3.2 2.56-4.16 2.56-5.12 2.56-6.24 2.24-7.2 1.6-7.84 .96-8.48 .16-8.8-.8-8.8-1.76-8.8-2.72-8.48-3.52-8-4.32-7.36-4.8-6.72-5.28-5.76-5.76-4.8-5.92-3.84-5.92-2.88-5.92-1.76-5.6-.8-4.96-.16-4.32 .48-3.52 .8-2.56 .8-1.6 .8-.8 .48 0 0ZM-6.08 2.4C-7.04 1.92-7.68 1.28-8.16 .32-8.64-.48-8.96-1.6-8.96-2.72-8.96-4.32-8.48-5.76-7.84-7.04-7.04-8.32-6.08-9.28-4.8-10.08-3.52-10.88-2.08-11.2-.48-11.2 .8-11.2 1.76-11.04 2.72-10.56 3.68-9.92 4.32-9.28 4.8-8.48 5.44-7.52 5.6-6.56 5.6-5.28 5.6-3.68 5.28-2.24 4.48-.96 3.68 .32 2.72 1.28 1.44 2.08 .16 2.88-1.44 3.2-2.88 3.2-4.16 3.2-5.12 2.88-6.08 2.4Z" fill="#0045c3"/>
<path transform="matrix(.75,0,0,.75,233.51999,458.16)" d="M0 0C.8-1.12 1.76-1.92 2.88-2.56 4-3.04 5.28-3.36 6.72-3.36 8.32-3.36 9.6-3.04 10.56-2.24 11.52-1.44 12.16-.32 12.32 1.28H9.12C8.96 .48 8.64 0 8.16-.32 7.68-.8 7.04-.96 6.24-.96 4.96-.96 4-.48 3.2 .32 2.4 1.12 1.76 2.24 1.44 3.84 1.44 4.32 1.44 4.8 1.44 5.12 1.44 6.24 1.6 7.04 2.24 7.68 2.72 8.32 3.52 8.64 4.48 8.64 6.24 8.64 7.52 7.84 8.32 6.4H11.36C10.72 7.84 9.76 8.96 8.48 9.76 7.2 10.56 5.76 11.04 4.16 11.04 2.4 11.04 .96 10.56 0 9.6-1.12 8.48-1.6 7.2-1.6 5.44-1.6 4.96-1.6 4.32-1.44 3.84-1.28 2.4-.64 1.12 0 0Z" fill="#0045c3"/>
<path transform="matrix(.75,0,0,.75,250.44,464.03999)" d="M0 0C.8-.64 1.44-1.28 1.92-2.24 2.4-3.2 2.56-4.16 2.56-5.12 2.56-6.24 2.24-7.2 1.6-7.84 .96-8.48 .16-8.8-.8-8.8-1.92-8.8-2.72-8.48-3.52-8-4.32-7.36-4.8-6.72-5.28-5.76-5.76-4.8-5.92-3.84-5.92-2.88-5.92-1.76-5.6-.8-4.96-.16-4.32 .48-3.52 .8-2.56 .8-1.6 .8-.8 .48 0 0ZM-6.08 2.4C-7.04 1.92-7.68 1.28-8.16 .32-8.64-.48-8.96-1.6-8.96-2.72-8.96-4.32-8.64-5.76-7.84-7.04-7.04-8.32-6.08-9.28-4.8-10.08-3.52-10.88-2.08-11.2-.48-11.2 .8-11.2 1.76-11.04 2.72-10.56 3.68-9.92 4.32-9.28 4.8-8.48 5.28-7.52 5.6-6.56 5.6-5.28 5.6-3.68 5.28-2.24 4.48-.96 3.68 .32 2.72 1.28 1.44 2.08 0 2.88-1.44 3.2-3.04 3.2-4.16 3.2-5.12 2.88-6.08 2.4Z" fill="#0045c3"/>
<path transform="matrix(.75,0,0,.75,273,456.48)" d="M0 0C.8 .8 1.28 1.92 1.28 3.36 1.28 3.84 1.28 4.32 1.12 4.8L-.32 13.12H-3.2L-1.76 5.28C-1.76 4.8-1.6 4.48-1.6 4.16-1.6 3.36-1.92 2.56-2.4 2.08-2.88 1.6-3.68 1.28-4.64 1.28-5.76 1.28-6.56 1.76-7.36 2.4-8.16 3.04-8.64 4-8.8 5.28L-10.24 13.12H-13.12L-11.68 5.28C-11.52 4.8-11.52 4.48-11.52 4.16-11.52 3.36-11.84 2.56-12.32 2.08-12.8 1.6-13.6 1.28-14.4 1.28-15.52 1.28-16.48 1.76-17.28 2.4-18.08 3.04-18.56 4-18.72 5.28V5.12L-20.16 13.12H-23.04L-20.48-.96H-17.6L-17.92 .64C-17.28 .16-16.64-.32-15.84-.64-15.04-.96-14.24-1.12-13.44-1.12-12.32-1.12-11.36-.96-10.56-.48-9.76 0-9.12 .64-8.8 1.6-8.32 .8-7.52 .16-6.56-.48-5.6-.96-4.64-1.12-3.52-1.12-2.08-1.12-.96-.8 0 0Z" fill="#0045c3"/>
<path transform="matrix(.75,0,0,.75,285.12,460.19999)" d="M0 0C0-1.12-.32-2.08-1.12-2.72-1.76-3.36-2.56-3.68-3.52-3.68-4.32-3.68-4.96-3.36-5.76-3.04-6.4-2.72-7.04-2.08-7.52-1.44-8.16-.64-8.48 .16-8.64 1.12-8.64 1.44-8.8 1.76-8.8 2.08-8.8 3.2-8.48 4.16-7.68 4.8-7.04 5.44-6.24 5.76-5.28 5.76-4.48 5.76-3.84 5.6-3.04 5.28-2.4 4.8-1.76 4.32-1.12 3.52-.64 2.88-.32 1.92-.16 .96 0 .64 0 .32 0 0ZM-5.44-5.44C-4.48-5.92-3.52-6.08-2.56-6.08-1.44-6.08-.48-5.92 .32-5.44 1.12-4.96 1.76-4.32 2.24-3.52 2.72-2.56 2.88-1.6 2.88-.48 2.88 0 2.88 .48 2.88 .96 2.56 2.4 2.08 3.68 1.28 4.8 .48 5.92-.48 6.72-1.6 7.36-2.72 8-3.84 8.32-4.96 8.32-6.08 8.32-7.04 8.16-7.84 7.68-8.48 7.2-9.12 6.72-9.6 6.08L-11.04 14.72H-13.92L-10.24-5.92H-7.36L-7.84-3.84C-7.2-4.48-6.4-4.96-5.44-5.44Z" fill="#0045c3"/>
<path transform="matrix(.75,0,0,.75,0,0)" d="M390.88 602.88 387.52 621.76H384.64L387.84 602.88Z" fill="#0045c3"/>
<path transform="matrix(.75,0,0,.75,301.91999,459.72004)" d="M0 0C0-.96-.32-1.76-.96-2.24-1.6-2.72-2.4-3.04-3.36-3.04-4.32-3.04-5.28-2.72-6.08-2.08-6.88-1.44-7.52-.48-7.84 .64H0C0 .32 0 .16 0 0ZM1.44-4C2.4-3.04 3.04-1.76 3.04 0 3.04 .32 2.88 .8 2.88 1.28 2.72 1.76 2.72 2.24 2.56 2.72H-8.16C-8.16 2.88-8.16 3.04-8.16 3.2-8.16 4.32-7.84 5.12-7.2 5.6-6.72 6.24-5.92 6.56-4.8 6.56-3.36 6.56-2.08 5.92-1.28 4.64H1.92C1.28 5.92 .32 6.88-.96 7.68-2.24 8.48-3.68 8.96-5.28 8.96-6.4 8.96-7.52 8.8-8.32 8.32-9.28 7.84-9.92 7.2-10.4 6.24-10.88 5.44-11.2 4.48-11.2 3.36-11.2 2.88-11.04 2.24-11.04 1.76-10.72 .32-10.24-.96-9.44-2.08-8.64-3.2-7.68-4-6.56-4.64-5.44-5.12-4.16-5.44-2.72-5.44-.96-5.44 .32-4.96 1.44-4Z" fill="#0045c3"/>
<path transform="matrix(.75,0,0,.75,308.28,463.32)" d="M0 0C0 .32-.16 .48-.16 .48-.16 .8 0 1.12 .16 1.28 .48 1.44 .8 1.44 1.28 1.44H3.04L2.72 4H.32C-.8 4-1.6 3.68-2.24 3.2-2.72 2.88-3.04 2.08-3.04 1.12-3.04 .8-3.04 .32-2.88 0L-1.6-7.68H-3.2L-2.88-10.08H-1.12L-.48-13.6H2.4L1.76-10.08H5.12L4.8-7.68H1.28Z" fill="#0045c3"/>
<path transform="matrix(.75,0,0,.75,321.12,460.19999)" d="M0 0C0-1.12-.32-1.92-.96-2.56-1.6-3.36-2.4-3.68-3.52-3.68-4.16-3.68-4.96-3.36-5.6-3.04-6.4-2.72-7.04-2.24-7.52-1.44-8-.8-8.32 0-8.48 .96-8.64 1.28-8.64 1.76-8.64 2.08-8.64 3.2-8.32 4.16-7.68 4.8-7.04 5.44-6.08 5.76-5.12 5.76-4.32 5.76-3.68 5.6-2.88 5.28-2.24 4.8-1.6 4.32-1.12 3.68-.64 2.88-.16 2.08 0 1.12 0 .8 0 .48 0 0ZM-9.92-2.72C-9.12-3.84-8.32-4.64-7.2-5.28-6.08-5.76-4.8-6.08-3.68-6.08-2.56-6.08-1.6-5.92-.8-5.44-.16-5.12 .48-4.48 .8-3.84L1.12-5.92H4L1.6 8.16H-1.28L-.96 6.08C-1.6 6.72-2.24 7.2-3.2 7.68-4.16 8.16-5.12 8.32-6.24 8.32-7.2 8.32-8.16 8-8.96 7.68-9.92 7.2-10.56 6.4-10.88 5.6-11.36 4.64-11.68 3.68-11.68 2.56-11.68 2.08-11.68 1.6-11.52 .96-11.2-.32-10.72-1.6-9.92-2.72Z" fill="#0045c3"/>
<path transform="matrix(.75,0,0,.75,339.36003,459.72004)" d="M0 0C0-.96-.32-1.76-.96-2.24-1.6-2.72-2.4-3.04-3.36-3.04-4.32-3.04-5.28-2.72-6.08-2.08-6.88-1.44-7.52-.48-7.84 .64H0C0 .32 0 .16 0 0ZM1.44-4C2.4-3.04 3.04-1.76 3.04 0 3.04 .32 2.88 .8 2.88 1.28 2.72 1.76 2.72 2.24 2.56 2.72H-8.16C-8.16 2.88-8.16 3.04-8.16 3.2-8.16 4.32-7.84 5.12-7.36 5.6-6.72 6.24-5.92 6.56-4.8 6.56-3.36 6.56-2.08 5.92-1.28 4.64H1.92C1.28 5.92 .32 6.88-.96 7.68-2.24 8.48-3.68 8.96-5.28 8.96-6.4 8.96-7.52 8.8-8.32 8.32-9.28 7.84-9.92 7.2-10.4 6.24-10.88 5.44-11.2 4.48-11.2 3.36-11.2 2.88-11.04 2.24-11.04 1.76-10.72 .32-10.24-.96-9.44-2.08-8.64-3.2-7.68-4-6.56-4.64-5.44-5.12-4.16-5.44-2.72-5.44-.96-5.44 .32-4.96 1.44-4Z" fill="#0045c3"/>
<path transform="matrix(.75,0,0,.75,359.88,456.48)" d="M0 0C.8 .8 1.28 1.92 1.28 3.36 1.28 3.84 1.28 4.32 1.12 4.8L-.32 13.12H-3.2L-1.76 5.28C-1.76 4.8-1.76 4.48-1.76 4.16-1.76 3.36-1.92 2.56-2.4 2.08-3.04 1.6-3.68 1.28-4.64 1.28-5.76 1.28-6.56 1.76-7.36 2.4-8.16 3.04-8.64 4-8.8 5.28L-10.24 13.12H-13.12L-11.68 5.28C-11.68 4.8-11.52 4.48-11.52 4.16-11.52 3.36-11.84 2.56-12.32 2.08-12.8 1.6-13.6 1.28-14.56 1.28-15.52 1.28-16.48 1.76-17.28 2.4-18.08 3.04-18.56 4-18.72 5.28V5.12L-20.16 13.12H-23.04L-20.48-.96H-17.6L-17.92 .64C-17.44 .16-16.64-.32-15.84-.64-15.04-.96-14.24-1.12-13.44-1.12-12.32-1.12-11.36-.96-10.56-.48-9.76 0-9.28 .64-8.96 1.6-8.32 .8-7.52 .16-6.56-.48-5.6-.96-4.64-1.12-3.52-1.12-2.08-1.12-.96-.8 0 0Z" fill="#0045c3"/>
<path transform="matrix(.75,0,0,.75,369.96,466.08003)" d="M0 0C-.8-.32-1.44-.8-1.76-1.44-2.24-2.08-2.56-2.72-2.56-3.52-2.56-3.68-2.56-3.84-2.4-4H.32C.32-3.36 .48-2.88 .96-2.4 1.44-2.08 2.08-1.76 2.88-1.76 3.68-1.76 4.32-1.92 4.8-2.24 5.44-2.56 5.6-2.88 5.6-3.52 5.6-4 5.44-4.32 4.96-4.64 4.64-4.96 3.84-5.28 2.88-5.6 2.08-5.92 1.28-6.24 .8-6.56 .16-6.88-.32-7.36-.64-7.84-1.12-8.32-1.28-9.12-1.28-9.92-1.28-10.72-1.12-11.36-.64-12-.16-12.64 .48-13.12 1.28-13.44 2.24-13.76 3.2-13.92 4.16-13.92 5.28-13.92 6.08-13.76 6.88-13.44 7.68-13.12 8.16-12.64 8.64-12 9.12-11.52 9.28-10.72 9.28-10.08 9.28-9.76 9.28-9.6 9.28-9.44H6.56C6.56-10.08 6.4-10.72 5.92-11.04 5.6-11.52 4.96-11.68 4-11.68 3.36-11.68 2.72-11.52 2.24-11.2 1.92-10.88 1.6-10.56 1.6-9.92 1.6-9.44 1.92-8.96 2.24-8.8 2.72-8.48 3.52-8 4.48-7.68 5.28-7.36 5.92-7.04 6.56-6.72 7.04-6.4 7.52-6.08 7.84-5.44 8.32-4.96 8.48-4.32 8.48-3.68 8.48-2.72 8.32-2.08 7.68-1.44 7.2-.8 6.56-.32 5.76 0 4.8 .32 3.84 .48 2.72 .48 1.76 .48 .8 .32 0 0Z" fill="#0045c3"/>
<path transform="matrix(.75,0,0,.75,386.76,459.72004)" d="M0 0C0-.96-.32-1.76-.96-2.24-1.6-2.72-2.4-3.04-3.36-3.04-4.32-3.04-5.28-2.72-6.08-2.08-7.04-1.44-7.52-.48-7.84 .64H0C0 .32 0 .16 0 0ZM1.44-4C2.4-3.04 2.88-1.76 2.88 0 2.88 .32 2.88 .8 2.88 1.28 2.72 1.76 2.56 2.24 2.4 2.72H-8.16C-8.16 2.88-8.32 3.04-8.32 3.2-8.32 4.32-8 5.12-7.36 5.6-6.72 6.24-5.92 6.56-4.96 6.56-3.36 6.56-2.08 5.92-1.28 4.64H1.92C1.28 5.92 .32 6.88-.96 7.68-2.24 8.48-3.68 8.96-5.28 8.96-6.56 8.96-7.52 8.8-8.32 8.32-9.28 7.84-9.92 7.2-10.4 6.24-10.88 5.44-11.2 4.48-11.2 3.36-11.2 2.88-11.2 2.24-11.04 1.76-10.72 .32-10.24-.96-9.44-2.08-8.64-3.2-7.68-4-6.56-4.64-5.44-5.12-4.16-5.44-2.72-5.44-1.12-5.44 .32-4.96 1.44-4Z" fill="#0045c3"/>
<path transform="matrix(.75,0,0,.75,395.27998,456.12)" d="M0 0C.8-.48 1.6-.64 2.56-.64L2.08 2.24H1.28C.16 2.24-.64 2.56-1.44 3.2-2.08 3.68-2.56 4.64-2.88 6.08L-4.16 13.6H-7.04L-4.48-.48H-1.6L-2.08 2.08C-1.44 1.12-.8 .48 0 0Z" fill="#0045c3"/>
<path transform="matrix(.75,0,0,.75,0,0)" d="M535.68 619.04 541.6 607.68H544.64L536.96 621.76H533.44L530.56 607.68H533.6Z" fill="#0045c3"/>
<path transform="matrix(.75,0,0,.75,410.64,454.08003)" d="M0 0C-.32-.32-.48-.64-.48-1.12-.48-1.76-.16-2.24 .32-2.72 .64-3.04 1.28-3.36 1.76-3.36 2.24-3.36 2.56-3.2 2.88-2.88 3.2-2.56 3.36-2.24 3.36-1.76 3.36-1.12 3.04-.64 2.72-.16 2.24 .16 1.76 .48 1.12 .48 .64 .48 .32 .32 0 0ZM2.24 2.24-.32 16.32H-3.2L-.64 2.24Z" fill="#0045c3"/>
<path transform="matrix(.75,0,0,.75,419.76,467.64)" d="M0 0C.48 .32 .8 .8 .8 1.44 .8 2.56 .48 3.36-.32 3.84-.96 4.48-1.92 4.8-2.88 4.8H-6.24L-5.92 3.04H-3.2C-2.72 3.04-2.24 2.88-1.92 2.72-1.76 2.56-1.6 2.24-1.6 1.76-1.6 1.6-1.76 1.28-1.92 1.28-2.08 1.12-2.4 1.12-2.88 1.12H-4.32L-3.68-2.08H-1.76L-2.08-.64C-1.12-.64-.48-.48 0 0ZM-6.72-12.64C-6.08-13.76-5.12-14.56-4-15.2-2.72-15.68-1.6-16-.16-16 1.44-16 2.88-15.68 3.84-14.88 4.8-14.08 5.28-12.96 5.44-11.36H2.24C2.24-12.16 1.92-12.64 1.44-12.96 .8-13.44 .16-13.6-.64-13.6-1.76-13.6-2.88-13.12-3.68-12.32-4.48-11.52-5.12-10.4-5.28-8.8-5.44-8.32-5.44-7.84-5.44-7.52-5.44-6.4-5.28-5.6-4.64-4.96-4.16-4.32-3.36-4-2.24-4-.64-4 .64-4.8 1.44-6.24H4.48C3.84-4.8 2.88-3.68 1.6-2.88 .32-2.08-1.12-1.6-2.72-1.6-4.48-1.6-5.92-2.08-6.88-3.04-8-4.16-8.48-5.44-8.48-7.2-8.48-7.68-8.48-8.32-8.32-8.8-8-10.24-7.52-11.52-6.72-12.64Z" fill="#0045c3"/>
<path transform="matrix(.75,0,0,.75,431.52,464.03999)" d="M0 0C.8-.64 1.44-1.28 1.92-2.24 2.4-3.2 2.56-4.16 2.56-5.12 2.56-6.24 2.24-7.2 1.6-7.84 .96-8.48 .16-8.8-.8-8.8-1.76-8.8-2.72-8.48-3.52-8-4.16-7.36-4.8-6.72-5.28-5.76-5.76-4.8-5.92-3.84-5.92-2.88-5.92-1.76-5.6-.8-4.96-.16-4.32 .48-3.52 .8-2.56 .8-1.6 .8-.8 .48 0 0ZM-6.08 2.4C-7.04 1.92-7.68 1.28-8.16 .32-8.64-.48-8.96-1.6-8.96-2.72-8.96-4.32-8.48-5.76-7.84-7.04-7.04-8.32-6.08-9.28-4.8-10.08-3.52-10.88-2.08-11.2-.48-11.2 .8-11.2 1.76-11.04 2.72-10.56 3.68-9.92 4.32-9.28 4.8-8.48 5.44-7.52 5.6-6.56 5.6-5.28 5.6-3.68 5.28-2.24 4.48-.96 3.68 .32 2.72 1.28 1.44 2.08 .16 2.88-1.28 3.2-2.88 3.2-4.16 3.2-5.12 2.88-6.08 2.4Z" fill="#0045c3"/>
<path transform="matrix(.75,0,0,.75,438.72004,466.08003)" d="M0 0C-.8-.32-1.44-.8-1.76-1.44-2.24-2.08-2.56-2.72-2.56-3.52-2.56-3.68-2.56-3.84-2.4-4H.32C.32-3.36 .48-2.88 .96-2.4 1.44-2.08 2.08-1.76 2.88-1.76 3.68-1.76 4.32-1.92 4.8-2.24 5.44-2.56 5.6-2.88 5.6-3.52 5.6-4 5.44-4.32 4.96-4.64 4.64-4.96 3.84-5.28 2.88-5.6 2.08-5.92 1.28-6.24 .8-6.56 .16-6.88-.32-7.36-.64-7.84-1.12-8.32-1.28-9.12-1.28-9.92-1.28-10.72-1.12-11.36-.64-12-.16-12.64 .48-13.12 1.28-13.44 2.24-13.76 3.2-13.92 4.16-13.92 5.28-13.92 6.08-13.76 6.88-13.44 7.68-13.12 8.16-12.64 8.64-12 9.12-11.52 9.28-10.72 9.28-10.08 9.28-9.76 9.28-9.6 9.28-9.44H6.56C6.56-10.08 6.4-10.72 5.92-11.04 5.44-11.52 4.8-11.68 4-11.68 3.36-11.68 2.72-11.52 2.24-11.2 1.76-10.88 1.6-10.56 1.6-9.92 1.6-9.44 1.92-8.96 2.24-8.8 2.72-8.48 3.52-8 4.48-7.68 5.28-7.36 5.92-7.04 6.56-6.72 7.04-6.4 7.52-6.08 7.84-5.44 8.32-4.96 8.48-4.32 8.48-3.68 8.48-2.72 8.16-2.08 7.68-1.44 7.2-.8 6.56-.32 5.6 0 4.8 .32 3.84 .48 2.72 .48 1.76 .48 .8 .32 0 0Z" fill="#0045c3"/>
</g>
</svg>
